<svg clip-rule="evenodd" fill-rule="evenodd" stroke-linejoin="round" stroke-miterlimit="2" viewBox="0 0 24 24" xmlns="http://www.w3.org/2000/svg"><path d="m21 4.009c0-.478-.379-1-1-1h-16c-.62 0-1 .519-1 1v16c0 .621.52 1 1 1h16c.478 0 1-.379 1-1zm-14.051 8.382c-.165-.148-.249-.352-.249-.557 0-.411.333-.746.748-.746.178 0 .355.063.499.19l3.298 2.938 5.453-5.962c.149-.161.35-.243.554-.243.417 0 .748.337.748.747 0 .179-.065.359-.196.502l-5.953 6.509c-.147.161-.35.242-.552.242-.178 0-.357-.062-.499-.19z" fill-rule="nonzero"/></svg>