<?xml version="1.0" encoding="UTF-8"?>
<svg width="700pt" height="700pt" version="1.1" viewBox="0 0 700 700" xmlns="http://www.w3.org/2000/svg" xmlns:xlink="http://www.w3.org/1999/xlink">
 <defs>
  <symbol id="u" overflow="visible">
   <path d="m27.484-1.6406c-1.418 0.73047-2.8984 1.2812-4.4375 1.6562-1.5312 0.375-3.1328 0.5625-4.7969 0.5625-4.9805 0-8.9297-1.3906-11.844-4.1719-2.9062-2.7891-4.3594-6.5664-4.3594-11.328 0-4.7812 1.4531-8.5625 4.3594-11.344 2.9141-2.7891 6.8633-4.1875 11.844-4.1875 1.6641 0 3.2656 0.1875 4.7969 0.5625 1.5391 0.375 3.0195 0.92969 4.4375 1.6562v6.2031c-1.4297-0.97656-2.8398-1.6914-4.2344-2.1406-1.3867-0.45703-2.8438-0.6875-4.375-0.6875-2.75 0-4.918 0.88281-6.5 2.6406-1.5742 1.7617-2.3594 4.1953-2.3594 7.2969 0 3.0859 0.78516 5.5078 2.3594 7.2656 1.582 1.7617 3.75 2.6406 6.5 2.6406 1.5312 0 2.9883-0.22266 4.375-0.67188 1.3945-0.45703 2.8047-1.1719 4.2344-2.1406z"/>
  </symbol>
  <symbol id="d" overflow="visible">
   <path d="m20.109-16.328c-0.625-0.28906-1.25-0.50391-1.875-0.64062-0.61719-0.14453-1.2344-0.21875-1.8594-0.21875-1.8438 0-3.2656 0.59375-4.2656 1.7812-0.99219 1.1797-1.4844 2.8672-1.4844 5.0625v10.344h-7.1719v-22.438h7.1719v3.6875c0.91406-1.4688 1.9727-2.5391 3.1719-3.2188 1.1953-0.67578 2.6289-1.0156 4.2969-1.0156 0.23828 0 0.5 0.011719 0.78125 0.03125 0.28125 0.023437 0.6875 0.070313 1.2188 0.14062z"/>
  </symbol>
  <symbol id="a" overflow="visible">
   <path d="m25.844-11.281v2.0469h-16.766c0.17578 1.6797 0.78516 2.9375 1.8281 3.7812 1.0391 0.84375 2.4922 1.2656 4.3594 1.2656 1.5078 0 3.0547-0.22266 4.6406-0.67188 1.582-0.44531 3.207-1.125 4.875-2.0312v5.5312c-1.6992 0.63672-3.3984 1.1172-5.0938 1.4375-1.6875 0.33203-3.3828 0.5-5.0781 0.5-4.0625 0-7.2188-1.0312-9.4688-3.0938s-3.375-4.957-3.375-8.6875c0-3.6562 1.1016-6.5312 3.3125-8.625 2.207-2.1016 5.25-3.1562 9.125-3.1562 3.5312 0 6.3516 1.0625 8.4688 3.1875 2.1133 2.125 3.1719 4.9648 3.1719 8.5156zm-7.375-2.375c0-1.3633-0.39844-2.4609-1.1875-3.2969-0.79297-0.84375-1.8281-1.2656-3.1094-1.2656-1.3984 0-2.5312 0.39062-3.4062 1.1719-0.86719 0.78125-1.4023 1.9141-1.6094 3.3906z"/>
  </symbol>
  <symbol id="k" overflow="visible">
   <path d="m13.5-10.094c-1.4922 0-2.6172 0.25781-3.375 0.76562-0.75 0.5-1.125 1.2461-1.125 2.2344 0 0.90625 0.30078 1.6211 0.90625 2.1406 0.60156 0.51172 1.4453 0.76562 2.5312 0.76562 1.3516 0 2.4883-0.48438 3.4062-1.4531 0.92578-0.96875 1.3906-2.1797 1.3906-3.6406v-0.8125zm10.969-2.7031v12.797h-7.2344v-3.3281c-0.96875 1.3672-2.0547 2.3594-3.25 2.9844-1.1992 0.61328-2.6641 0.92188-4.3906 0.92188-2.3242 0-4.2109-0.67578-5.6562-2.0312-1.4492-1.3516-2.1719-3.1133-2.1719-5.2812 0-2.625 0.89844-4.5508 2.7031-5.7812 1.8125-1.2266 4.6562-1.8438 8.5312-1.8438h4.2344v-0.5625c0-1.1328-0.44922-1.9688-1.3438-2.5-0.89844-0.53125-2.293-0.79688-4.1875-0.79688-1.543 0-2.9766 0.15625-4.2969 0.46875-1.3242 0.30469-2.5547 0.76172-3.6875 1.375v-5.4688c1.5391-0.375 3.082-0.65625 4.625-0.84375 1.5508-0.19531 3.1016-0.29688 4.6562-0.29688 4.0508 0 6.9727 0.80469 8.7656 2.4062 1.8008 1.5938 2.7031 4.1875 2.7031 7.7812z"/>
  </symbol>
  <symbol id="c" overflow="visible">
   <path d="m11.281-28.812v6.375h7.3906v5.125h-7.3906v9.5156c0 1.043 0.20312 1.75 0.60938 2.125 0.41406 0.36719 1.2383 0.54688 2.4688 0.54688h3.6875v5.125h-6.1406c-2.8359 0-4.8438-0.58594-6.0312-1.7656-1.1797-1.1875-1.7656-3.1953-1.7656-6.0312v-9.5156h-3.5625v-5.125h3.5625v-6.375z"/>
  </symbol>
  <symbol id="j" overflow="visible">
   <path d="m18.719-19.156v-12.016h7.2031v31.172h-7.2031v-3.25c-0.99219 1.3242-2.0859 2.293-3.2812 2.9062-1.1875 0.61328-2.5625 0.92188-4.125 0.92188-2.7617 0-5.0312-1.0977-6.8125-3.2969-1.7734-2.1953-2.6562-5.0234-2.6562-8.4844 0-3.457 0.88281-6.2852 2.6562-8.4844 1.7812-2.1953 4.0508-3.2969 6.8125-3.2969 1.5508 0 2.9258 0.3125 4.125 0.9375 1.1953 0.625 2.2891 1.5898 3.2812 2.8906zm-4.7344 14.531c1.5312 0 2.7031-0.5625 3.5156-1.6875s1.2188-2.7539 1.2188-4.8906c0-2.1328-0.40625-3.7578-1.2188-4.875-0.8125-1.125-1.9844-1.6875-3.5156-1.6875-1.5234 0-2.6875 0.5625-3.5 1.6875-0.80469 1.1172-1.2031 2.7422-1.2031 4.875 0 2.1367 0.39844 3.7656 1.2031 4.8906 0.8125 1.125 1.9766 1.6875 3.5 1.6875z"/>
  </symbol>
  <symbol id="i" overflow="visible">
   <path d="m15.391-4.625c1.5312 0 2.6953-0.5625 3.5-1.6875 0.8125-1.125 1.2188-2.7539 1.2188-4.8906 0-2.1328-0.40625-3.7578-1.2188-4.875-0.80469-1.125-1.9688-1.6875-3.5-1.6875-1.543 0-2.7266 0.5625-3.5469 1.6875-0.8125 1.125-1.2188 2.75-1.2188 4.875s0.40625 3.7578 1.2188 4.8906c0.82031 1.125 2.0039 1.6875 3.5469 1.6875zm-4.7656-14.531c0.97656-1.3008 2.0664-2.2656 3.2656-2.8906 1.207-0.625 2.5938-0.9375 4.1562-0.9375 2.7695 0 5.0391 1.1016 6.8125 3.2969 1.7812 2.1992 2.6719 5.0273 2.6719 8.4844 0 3.4609-0.89062 6.2891-2.6719 8.4844-1.7734 2.1992-4.043 3.2969-6.8125 3.2969-1.5625 0-2.9492-0.30859-4.1562-0.92188-1.1992-0.625-2.2891-1.5938-3.2656-2.9062v3.25h-7.1719v-31.172h7.1719z"/>
  </symbol>
  <symbol id="f" overflow="visible">
   <path d="m0.5-22.438h7.1719l6.0312 15.219 5.125-15.219h7.1719l-9.4375 24.562c-0.94922 2.5-2.0547 4.2422-3.3125 5.2344-1.2617 1-2.9297 1.5-5 1.5h-4.1406v-4.7188h2.2344c1.2188 0 2.1016-0.19531 2.6562-0.57812 0.5625-0.38672 0.99219-1.0781 1.2969-2.0781l0.20312-0.625z"/>
  </symbol>
  <symbol id="h" overflow="visible">
   <path d="m3.7656-29.906h7.7188v27c0 3.7266-1.0156 6.5156-3.0469 8.3594-2.0234 1.8438-5.0781 2.7656-9.1719 2.7656h-1.5625v-5.8281h1.1875c1.6016 0 2.8164-0.44922 3.6406-1.3438 0.82031-0.89844 1.2344-2.2109 1.2344-3.9531z"/>
  </symbol>
  <symbol id="b" overflow="visible">
   <path d="m14.125-17.844c-1.5938 0-2.8086 0.57422-3.6406 1.7188-0.83594 1.1367-1.25 2.7773-1.25 4.9219 0 2.1562 0.41406 3.8086 1.25 4.9531 0.83203 1.1367 2.0469 1.7031 3.6406 1.7031 1.5625 0 2.7539-0.56641 3.5781-1.7031 0.83203-1.1445 1.25-2.7969 1.25-4.9531 0-2.1445-0.41797-3.7852-1.25-4.9219-0.82422-1.1445-2.0156-1.7188-3.5781-1.7188zm0-5.1406c3.8633 0 6.8789 1.043 9.0469 3.125 2.1641 2.0859 3.25 4.9688 3.25 8.6562s-1.0859 6.5742-3.25 8.6562c-2.168 2.0859-5.1836 3.125-9.0469 3.125-3.875 0-6.9062-1.0391-9.0938-3.125-2.1797-2.082-3.2656-4.9688-3.2656-8.6562s1.0859-6.5703 3.2656-8.6562c2.1875-2.082 5.2188-3.125 9.0938-3.125z"/>
  </symbol>
  <symbol id="g" overflow="visible">
   <path d="m26-13.656v13.656h-7.2031v-10.422c0-1.957-0.046875-3.3008-0.14062-4.0312-0.085938-0.73828-0.23047-1.2852-0.4375-1.6406-0.28125-0.46875-0.66797-0.83203-1.1562-1.0938-0.48047-0.25781-1.0273-0.39062-1.6406-0.39062-1.4922 0-2.6641 0.57812-3.5156 1.7344-0.85547 1.1562-1.2812 2.7578-1.2812 4.7969v11.047h-7.1719v-31.172h7.1719v12.016c1.0703-1.3008 2.2188-2.2656 3.4375-2.8906s2.5625-0.9375 4.0312-0.9375c2.5938 0 4.5547 0.79688 5.8906 2.3906 1.3438 1.5859 2.0156 3.8984 2.0156 6.9375z"/>
  </symbol>
  <symbol id="e" overflow="visible">
   <path d="m26-13.656v13.656h-7.2031v-10.453c0-1.9375-0.046875-3.2695-0.14062-4-0.085938-0.73828-0.23047-1.2852-0.4375-1.6406-0.28125-0.46875-0.66797-0.83203-1.1562-1.0938-0.48047-0.25781-1.0273-0.39062-1.6406-0.39062-1.4922 0-2.6641 0.57812-3.5156 1.7344-0.85547 1.1562-1.2812 2.7578-1.2812 4.7969v11.047h-7.1719v-22.438h7.1719v3.2812c1.0703-1.3008 2.2188-2.2656 3.4375-2.8906s2.5625-0.9375 4.0312-0.9375c2.5938 0 4.5547 0.79688 5.8906 2.3906 1.3438 1.5859 2.0156 3.8984 2.0156 6.9375z"/>
  </symbol>
  <symbol id="t" overflow="visible">
   <path d="m2.2969-29.906h25.156v4.6562l-16.047 19.422h16.5v5.8281h-26.062v-4.6719l16.047-19.406h-15.594z"/>
  </symbol>
  <symbol id="s" overflow="visible">
   <path d="m3.4531-22.438h7.1719v22.438h-7.1719zm0-8.7344h7.1719v5.8438h-7.1719z"/>
  </symbol>
  <symbol id="r" overflow="visible">
   <path d="m18.219-31.172v4.7031h-3.9688c-1.0234 0-1.7344 0.1875-2.1406 0.5625-0.39844 0.36719-0.59375 1-0.59375 1.9062v1.5625h6.1406v5.125h-6.1406v17.312h-7.1719v-17.312h-3.5625v-5.125h3.5625v-1.5625c0-2.4453 0.67969-4.2539 2.0469-5.4219 1.3633-1.1641 3.4727-1.75 6.3281-1.75z"/>
  </symbol>
  <symbol id="q" overflow="visible">
   <path d="m24.234-18.719c0.91406-1.3828 1.9922-2.4414 3.2344-3.1719 1.25-0.72656 2.625-1.0938 4.125-1.0938 2.582 0 4.5469 0.79688 5.8906 2.3906 1.3516 1.5859 2.0312 3.8984 2.0312 6.9375v13.656h-7.2188v-11.703c0.007813-0.16406 0.019531-0.34375 0.03125-0.53125 0.007813-0.1875 0.015625-0.45703 0.015625-0.8125 0-1.582-0.23438-2.7344-0.70312-3.4531s-1.2266-1.0781-2.2656-1.0781c-1.3672 0-2.418 0.5625-3.1562 1.6875-0.74219 1.125-1.125 2.75-1.1562 4.875v11.016h-7.2188v-11.703c0-2.4766-0.21484-4.0781-0.64062-4.7969-0.42969-0.71875-1.1875-1.0781-2.2812-1.0781-1.375 0-2.4375 0.57031-3.1875 1.7031-0.74219 1.125-1.1094 2.7344-1.1094 4.8281v11.047h-7.2188v-22.438h7.2188v3.2812c0.875-1.2695 1.8789-2.2227 3.0156-2.8594 1.1445-0.64453 2.4102-0.96875 3.7969-0.96875 1.5391 0 2.9062 0.375 4.0938 1.125 1.1953 0.75 2.0977 1.7969 2.7031 3.1406z"/>
  </symbol>
  <symbol id="p" overflow="visible">
   <path d="m3.7656-29.906h8.6094l10.891 20.516v-20.516h7.3125v29.906h-8.625l-10.875-20.516v20.516h-7.3125z"/>
  </symbol>
  <symbol id="o" overflow="visible">
   <path d="m3.2031-8.7344v-13.703h7.2188v2.25c0 1.2109-0.011719 2.7344-0.03125 4.5781-0.011719 1.8359-0.015625 3.0586-0.015625 3.6719 0 1.8047 0.046875 3.1016 0.14062 3.8906 0.09375 0.79297 0.25391 1.3711 0.48438 1.7344 0.28906 0.46875 0.67188 0.83594 1.1406 1.0938 0.47656 0.25 1.0234 0.375 1.6406 0.375 1.5 0 2.6758-0.57031 3.5312-1.7188 0.85156-1.1562 1.2812-2.7539 1.2812-4.7969v-11.078h7.1719v22.438h-7.1719v-3.25c-1.0859 1.3125-2.2305 2.2812-3.4375 2.9062-1.2109 0.61328-2.543 0.92188-4 0.92188-2.5938 0-4.5703-0.78906-5.9219-2.375-1.3555-1.5938-2.0312-3.9062-2.0312-6.9375z"/>
  </symbol>
  <symbol id="n" overflow="visible">
   <path d="m3.7656-29.906h12.797c3.8125 0 6.7344 0.84375 8.7656 2.5312 2.0391 1.6875 3.0625 4.0938 3.0625 7.2188 0 3.1367-1.0234 5.5547-3.0625 7.25-2.0312 1.6875-4.9531 2.5312-8.7656 2.5312h-5.0781v10.375h-7.7188zm7.7188 5.5781v8.3594h4.2656c1.4883 0 2.6406-0.36328 3.4531-1.0938 0.82031-0.72656 1.2344-1.7578 1.2344-3.0938 0-1.332-0.41406-2.3594-1.2344-3.0781-0.8125-0.72656-1.9648-1.0938-3.4531-1.0938z"/>
  </symbol>
  <symbol id="m" overflow="visible">
   <path d="m3.4531-22.438h7.1719v22.031c0 3.0078-0.72656 5.3047-2.1719 6.8906-1.4375 1.582-3.5273 2.375-6.2656 2.375h-3.5469v-4.7188h1.2344c1.3633 0 2.3008-0.30859 2.8125-0.92188 0.50781-0.61719 0.76562-1.8242 0.76562-3.625zm0-8.7344h7.1719v5.8438h-7.1719z"/>
  </symbol>
  <symbol id="l" overflow="visible">
   <path d="m21.578-21.734v5.8438c-0.98047-0.66406-1.9609-1.1562-2.9375-1.4688-0.98047-0.32031-1.9961-0.48438-3.0469-0.48438-2.0117 0-3.5742 0.58594-4.6875 1.75-1.1172 1.168-1.6719 2.7969-1.6719 4.8906 0 2.1055 0.55469 3.7422 1.6719 4.9062 1.1133 1.168 2.6758 1.75 4.6875 1.75 1.1133 0 2.1758-0.16406 3.1875-0.5 1.0078-0.33203 1.9414-0.82812 2.7969-1.4844v5.875c-1.125 0.40625-2.2656 0.71094-3.4219 0.92188-1.1562 0.20703-2.3125 0.3125-3.4688 0.3125-4.0547 0-7.2188-1.0352-9.5-3.1094-2.2812-2.082-3.4219-4.9727-3.4219-8.6719 0-3.6953 1.1406-6.582 3.4219-8.6562 2.2812-2.082 5.4453-3.125 9.5-3.125 1.1758 0 2.332 0.10547 3.4688 0.3125 1.1445 0.21094 2.2852 0.52344 3.4219 0.9375z"/>
  </symbol>
 </defs>
 <g>
  <path d="m141.3 334.47 416.67 0.73828c3.1289 0.023437 5.7773-2.3086 6.1523-5.418 1.1055-9.0078 1.6562-18.078 1.6445-27.16 0-57.418-22.812-112.48-63.414-153.09-40.602-40.602-95.668-63.41-153.09-63.41s-112.49 22.809-153.09 63.41c-40.602 40.602-63.414 95.668-63.414 153.09 0.015625 8.8594 0.5625 17.711 1.6406 26.504 0.61719 3.2695 3.5781 5.5586 6.8945 5.3359z"/>
  <path d="m693.77 359.91h-687.61c-3.418 0-6.1953 2.7734-6.1953 6.1953 0 3.4219 2.7773 6.1953 6.1953 6.1953h687.61c3.418 0 6.1914-2.7734 6.1914-6.1953 0-3.4219-2.7734-6.1953-6.1914-6.1953z"/>
  <path d="m587.59 434.17h-475.25c-3.4219 0-6.1953 2.7734-6.1953 6.1953 0 3.418 2.7734 6.1953 6.1953 6.1953h475.25c3.4219 0 6.1953-2.7773 6.1953-6.1953 0-3.4219-2.7734-6.1953-6.1953-6.1953z"/>
  <path d="m487.56 496.04h-275.21c-3.4219 0-6.1953 2.7734-6.1953 6.1953s2.7734 6.1953 6.1953 6.1953h275.21c3.4219 0 6.1953-2.7734 6.1953-6.1953s-2.7734-6.1953-6.1953-6.1953z"/>
  <use y="631.421875" xlink:href="#u"/>
  <use x="30.109375" y="631.421875" xlink:href="#d"/>
  <use x="50.34375" y="631.421875" xlink:href="#a"/>
  <use x="78.167969" y="631.421875" xlink:href="#k"/>
  <use x="105.851562" y="631.421875" xlink:href="#c"/>
  <use x="125.464844" y="631.421875" xlink:href="#a"/>
  <use x="153.289062" y="631.421875" xlink:href="#j"/>
  <use x="196.941406" y="631.421875" xlink:href="#i"/>
  <use x="226.308594" y="631.421875" xlink:href="#f"/>
  <use x="267.335938" y="631.421875" xlink:href="#h"/>
  <use x="282.601562" y="631.421875" xlink:href="#b"/>
  <use x="310.785156" y="631.421875" xlink:href="#g"/>
  <use x="339.992188" y="631.421875" xlink:href="#e"/>
  <use x="369.203125" y="631.421875" xlink:href="#e"/>
  <use x="398.410156" y="631.421875" xlink:href="#f"/>
  <use x="425.152344" y="631.421875" xlink:href="#t"/>
  <use x="454.902344" y="631.421875" xlink:href="#s"/>
  <use y="672.449219" xlink:href="#r"/>
  <use x="17.847656" y="672.449219" xlink:href="#d"/>
  <use x="38.082031" y="672.449219" xlink:href="#b"/>
  <use x="66.269531" y="672.449219" xlink:href="#q"/>
  <use x="123.300781" y="672.449219" xlink:href="#c"/>
  <use x="142.914062" y="672.449219" xlink:href="#g"/>
  <use x="172.121094" y="672.449219" xlink:href="#a"/>
  <use x="214.230469" y="672.449219" xlink:href="#p"/>
  <use x="248.566406" y="672.449219" xlink:href="#b"/>
  <use x="276.75" y="672.449219" xlink:href="#o"/>
  <use x="305.957031" y="672.449219" xlink:href="#e"/>
  <use x="349.449219" y="672.449219" xlink:href="#n"/>
  <use x="379.519531" y="672.449219" xlink:href="#d"/>
  <use x="399.75" y="672.449219" xlink:href="#b"/>
  <use x="427.9375" y="672.449219" xlink:href="#m"/>
  <use x="442" y="672.449219" xlink:href="#a"/>
  <use x="469.824219" y="672.449219" xlink:href="#l"/>
  <use x="494.144531" y="672.449219" xlink:href="#c"/>
 </g>
</svg>
