<?xml version="1.0" encoding="UTF-8"?>
<svg width="700pt" height="700pt" version="1.1" viewBox="0 0 700 700" xmlns="http://www.w3.org/2000/svg">
 <g>
  <path d="m350.02 157.51c-32.492 0-63.652 12.902-86.625 35.875-22.977 22.973-35.883 54.129-35.883 86.617 0 32.488 12.906 63.645 35.883 86.617 22.973 22.973 54.133 35.879 86.625 35.879 32.488 0 63.648-12.906 86.625-35.879 22.973-22.973 35.879-54.129 35.879-86.617 0-32.488-12.906-63.645-35.883-86.617-22.973-22.973-54.133-35.875-86.621-35.875zm-39.41 56.871c7.7109 0 14.762 3.3398 19.723 8.5469 2.4688 2.5977 4.4727 5.6523 5.8438 9.0547 1.8125 4.4805-0.35547 9.5859-4.8359 11.398-4.4844 1.8125-9.5898-0.35547-11.402-4.8359-0.54297-1.3477-1.332-2.5391-2.2891-3.5547-1.8906-1.9883-4.2891-3.1094-7.043-3.1094-2.7383 0-5.1523 1.1367-7.043 3.1094-0.95312 0.99609-1.7461 2.207-2.2891 3.5547h0.003907c-1.8125 4.4805-6.918 6.6484-11.402 4.8359s-6.6484-6.918-4.8359-11.398c1.3711-3.4023 3.3711-6.457 5.8438-9.0547 4.9609-5.207 12.012-8.5469 19.723-8.5469zm78.754 0c7.7109 0 14.762 3.3398 19.723 8.5469 2.4688 2.5977 4.4727 5.6523 5.8438 9.0547 1.8125 4.4805-0.35547 9.5859-4.8359 11.398-4.4844 1.8125-9.5898-0.35547-11.402-4.8359-0.54297-1.3477-1.332-2.5391-2.2891-3.5547-1.8906-1.9883-4.2891-3.1094-7.043-3.1094-2.7383 0-5.1523 1.1367-7.043 3.1094-0.95312 0.99609-1.7461 2.207-2.2891 3.5547h0.003906c-1.8125 4.4805-6.918 6.6484-11.402 4.8359s-6.6484-6.918-4.8359-11.398c1.3711-3.4023 3.3711-6.457 5.8438-9.0547 4.9609-5.207 12.012-8.5469 19.723-8.5469zm-83.473 91.871v-0.003906c2.9766-0.11719 5.8086 1.2852 7.5195 3.7266 1.5586 2.1602 3.3203 4.1914 5.2969 6.0508 7.9102 7.418 18.945 12.098 31.277 12.098 12.328 0 23.363-4.6836 31.277-12.098 1.9805-1.8555 3.7422-3.8867 5.2969-6.0508 1.3555-1.8945 3.4102-3.1719 5.7109-3.5469 2.2969-0.37891 4.6523 0.17578 6.543 1.5391s3.1602 3.4219 3.5273 5.7227c0.37109 2.3008-0.19141 4.6523-1.5625 6.5391-2.2305 3.0977-4.7656 5.9648-7.5547 8.5781-11.152 10.453-26.477 16.816-43.238 16.816-16.766 0-32.086-6.3594-43.238-16.816-2.7852-2.6133-5.3242-5.4844-7.5547-8.5781-1.9492-2.6094-2.2852-6.082-0.87891-9.0156s4.3242-4.8477 7.5781-4.9648z"/>
  <path d="m349.86 35c-4.832 0.074219-8.6875 4.0547-8.6133 8.8828v52.262c-0.035156 2.3438 0.875 4.6016 2.5195 6.2695 1.6445 1.668 3.8867 2.6055 6.2305 2.6055s4.5859-0.9375 6.2305-2.6055c1.6445-1.668 2.5547-3.9258 2.5195-6.2695v-52.262c0.035156-2.3672-0.88672-4.6484-2.5625-6.3203-1.6758-1.6758-3.957-2.6016-6.3242-2.5625z" fill-rule="evenodd"/>
  <path d="m349.86 454.98c-4.832 0.074219-8.6875 4.0508-8.6133 8.8828v52.262c-0.035156 2.3398 0.875 4.5977 2.5195 6.2656s3.8867 2.6094 6.2305 2.6094 4.5859-0.94141 6.2305-2.6094 2.5547-3.9258 2.5195-6.2656v-52.262c0.035156-2.3672-0.88672-4.6484-2.5625-6.3242-1.6758-1.6719-3.957-2.5977-6.3242-2.5586z" fill-rule="evenodd"/>
  <path d="m113.88 271.24c-2.3477-0.042969-4.6133 0.86328-6.2852 2.5078-1.6758 1.6445-2.6172 3.8945-2.6172 6.2422 0 2.3438 0.94141 4.5938 2.6172 6.2383 1.6719 1.6445 3.9375 2.5508 6.2852 2.5078h52.23c2.3438 0.042969 4.6094-0.86328 6.2852-2.5078 1.6719-1.6445 2.6172-3.8945 2.6172-6.2383 0-2.3477-0.94531-4.5977-2.6172-6.2422-1.6758-1.6445-3.9414-2.5508-6.2852-2.5078z" fill-rule="evenodd"/>
  <path d="m533.89 271.24c-2.3477-0.042969-4.6094 0.86328-6.2852 2.5078-1.6758 1.6445-2.6172 3.8945-2.6172 6.2422 0 2.3438 0.94141 4.5938 2.6172 6.2383 1.6758 1.6445 3.9375 2.5508 6.2852 2.5078h52.23c2.3477 0.042969 4.6133-0.86328 6.2852-2.5078 1.6758-1.6445 2.6172-3.8945 2.6172-6.2383 0-2.3477-0.94141-4.5977-2.6172-6.2422-1.6719-1.6445-3.9375-2.5508-6.2852-2.5078z" fill-rule="evenodd"/>
  <path d="m515.98 105.03c-2.2695 0.0625-4.4297 1.0078-6.0156 2.6328l-34.797 34.828v-0.003907c-1.7031 1.6289-2.6797 3.875-2.7109 6.2305-0.027344 2.3555 0.89844 4.625 2.5664 6.2891 1.6641 1.668 3.9336 2.5898 6.2891 2.5625 2.3555-0.027343 4.6016-1.0039 6.2305-2.7109l34.797-34.828v0.003906c2.5742-2.5195 3.3438-6.3555 1.9375-9.6719-1.4062-3.3125-4.6992-5.4297-8.2969-5.332z" fill-rule="evenodd"/>
  <path d="m183.74 105c-3.5664 0-6.7734 2.1641-8.1094 5.4688-1.3398 3.3047-0.53516 7.0898 2.0234 9.5703l34.797 34.828v-0.003906c1.6289 1.707 3.875 2.6836 6.2305 2.7109 2.3555 0.027344 4.6211-0.89844 6.2891-2.5625 1.6641-1.668 2.5898-3.9336 2.5625-6.2891s-1.0039-4.6016-2.707-6.2305l-34.797-34.828v0.003906c-1.6484-1.7031-3.918-2.668-6.2891-2.668z" fill-rule="evenodd"/>
  <path d="m481.26 402.48c-3.5664 0-6.7773 2.1641-8.1133 5.4688-1.3359 3.3047-0.53516 7.0898 2.0273 9.5703l34.797 34.828c1.6289 1.6953 3.8711 2.6641 6.2227 2.6875 2.3516 0.023438 4.6133-0.90234 6.2734-2.5625 1.6641-1.6641 2.5898-3.9258 2.5664-6.2773-0.023438-2.3477-0.99219-4.5938-2.6875-6.2227l-34.797-34.828v0.003907c-1.6484-1.707-3.918-2.668-6.2891-2.668z" fill-rule="evenodd"/>
  <path d="m218.47 402.52c-2.2695 0.0625-4.4258 1.0078-6.0156 2.6328l-34.797 34.828v-0.003906c-1.6953 1.6289-2.6641 3.875-2.6875 6.2227-0.023438 2.3516 0.89844 4.6172 2.5625 6.2773 1.6641 1.6641 3.9258 2.5859 6.2773 2.5625 2.3516-0.023437 4.5938-0.99219 6.2227-2.6875l34.797-34.828c2.5742-2.5156 3.3438-6.3555 1.9414-9.6719-1.4062-3.3164-4.6992-5.4297-8.3008-5.332z" fill-rule="evenodd"/>
 </g>
</svg>
