<?xml version="1.0" encoding="UTF-8"?>
<svg width="700pt" height="700pt" version="1.1" viewBox="0 0 700 700" xmlns="http://www.w3.org/2000/svg" xmlns:xlink="http://www.w3.org/1999/xlink">
 <defs>
  <symbol id="v" overflow="visible">
   <path d="m7.1562-0.42188c-0.36719 0.1875-0.75 0.32812-1.1562 0.42188-0.39844 0.10156-0.8125 0.15625-1.25 0.15625-1.293 0-2.3203-0.36328-3.0781-1.0938-0.76172-0.72656-1.1406-1.7109-1.1406-2.9531 0-1.2383 0.37891-2.2227 1.1406-2.9531 0.75781-0.72656 1.7852-1.0938 3.0781-1.0938 0.4375 0 0.85156 0.054688 1.25 0.15625 0.40625 0.09375 0.78906 0.23438 1.1562 0.42188v1.625c-0.375-0.25781-0.74609-0.44531-1.1094-0.5625-0.35547-0.11328-0.73047-0.17188-1.125-0.17188-0.71875 0-1.2891 0.23047-1.7031 0.6875-0.40625 0.46094-0.60938 1.0898-0.60938 1.8906 0 0.80469 0.20312 1.4375 0.60938 1.9062 0.41406 0.46094 0.98438 0.6875 1.7031 0.6875 0.39453 0 0.76953-0.054687 1.125-0.17188 0.36328-0.125 0.73438-0.31641 1.1094-0.57812z"/>
  </symbol>
  <symbol id="c" overflow="visible">
   <path d="m5.2344-4.25c-0.15625-0.082031-0.32031-0.14062-0.48438-0.17188-0.15625-0.039063-0.32031-0.0625-0.48438-0.0625-0.48047 0-0.85156 0.15625-1.1094 0.46875-0.26172 0.3125-0.39062 0.75781-0.39062 1.3281v2.6875h-1.875v-5.8438h1.875v0.95312c0.23828-0.375 0.51562-0.64844 0.82812-0.82812 0.3125-0.17578 0.6875-0.26562 1.125-0.26562 0.0625 0 0.12891 0.007813 0.20312 0.015625 0.070313 0 0.17578 0.011719 0.3125 0.03125z"/>
  </symbol>
  <symbol id="a" overflow="visible">
   <path d="m6.7344-2.9375v0.53125h-4.375c0.050781 0.4375 0.21094 0.76562 0.48438 0.98438 0.26953 0.21875 0.64453 0.32812 1.125 0.32812 0.39453 0 0.79688-0.054688 1.2031-0.17188 0.41406-0.11328 0.84375-0.28906 1.2812-0.53125v1.4375c-0.4375 0.16797-0.88281 0.29297-1.3281 0.375-0.4375 0.09375-0.88281 0.14062-1.3281 0.14062-1.0547 0-1.875-0.26953-2.4688-0.8125-0.58594-0.53906-0.875-1.2969-0.875-2.2656 0-0.94531 0.28516-1.6914 0.85938-2.2344 0.58203-0.55078 1.3789-0.82812 2.3906-0.82812 0.91406 0 1.6484 0.27734 2.2031 0.82812 0.55078 0.55469 0.82812 1.293 0.82812 2.2188zm-1.9219-0.625c0-0.35156-0.10547-0.64062-0.3125-0.85938-0.21094-0.21875-0.48047-0.32812-0.8125-0.32812-0.36719 0-0.66406 0.10547-0.89062 0.3125-0.21875 0.19922-0.35547 0.49219-0.40625 0.875z"/>
  </symbol>
  <symbol id="i" overflow="visible">
   <path d="m3.5156-2.625c-0.38672 0-0.67969 0.070312-0.875 0.20312-0.19922 0.125-0.29688 0.32031-0.29688 0.57812 0 0.23047 0.078125 0.41406 0.23438 0.54688 0.15625 0.13672 0.375 0.20312 0.65625 0.20312 0.35156 0 0.64844-0.125 0.89062-0.375 0.23828-0.25 0.35938-0.56641 0.35938-0.95312v-0.20312zm2.8594-0.70312v3.3281h-1.8906v-0.85938c-0.25 0.35547-0.53125 0.61719-0.84375 0.78125-0.3125 0.15625-0.69531 0.23438-1.1406 0.23438-0.60547 0-1.1016-0.17578-1.4844-0.53125-0.375-0.35156-0.5625-0.8125-0.5625-1.375 0-0.6875 0.23438-1.1875 0.70312-1.5 0.47656-0.32031 1.2227-0.48438 2.2344-0.48438h1.0938v-0.15625c0-0.28906-0.12109-0.50391-0.35938-0.64062-0.23047-0.14453-0.58984-0.21875-1.0781-0.21875-0.39844 0-0.76562 0.042969-1.1094 0.125-0.34375 0.085938-0.66797 0.20312-0.96875 0.35938v-1.4219c0.40625-0.09375 0.80469-0.16406 1.2031-0.21875 0.40625-0.050781 0.8125-0.078125 1.2188-0.078125 1.0508 0 1.8125 0.21094 2.2812 0.625 0.46875 0.41797 0.70312 1.0938 0.70312 2.0312z"/>
  </symbol>
  <symbol id="b" overflow="visible">
   <path d="m2.9375-7.5v1.6562h1.9219v1.3281h-1.9219v2.4844c0 0.27344 0.050781 0.45312 0.15625 0.54688 0.11328 0.09375 0.32812 0.14062 0.64062 0.14062h0.96875v1.3438h-1.6094c-0.73047 0-1.25-0.14844-1.5625-0.45312-0.3125-0.3125-0.46875-0.83594-0.46875-1.5781v-2.4844h-0.92188v-1.3281h0.92188v-1.6562z"/>
  </symbol>
  <symbol id="l" overflow="visible">
   <path d="m4.875-4.9844v-3.1406h1.875v8.125h-1.875v-0.84375c-0.26172 0.34375-0.54688 0.60156-0.85938 0.76562-0.30469 0.15625-0.65625 0.23438-1.0625 0.23438-0.71875 0-1.3125-0.28516-1.7812-0.85938-0.46094-0.57031-0.6875-1.3125-0.6875-2.2188 0-0.89453 0.22656-1.6289 0.6875-2.2031 0.46875-0.57031 1.0625-0.85938 1.7812-0.85938 0.39453 0 0.75 0.085937 1.0625 0.25 0.3125 0.15625 0.59766 0.40625 0.85938 0.75zm-1.2344 3.7812c0.40625 0 0.71094-0.14453 0.92188-0.4375 0.20703-0.28906 0.3125-0.71875 0.3125-1.2812 0-0.55078-0.10547-0.97266-0.3125-1.2656-0.21094-0.28906-0.51562-0.4375-0.92188-0.4375-0.39844 0-0.69922 0.14844-0.90625 0.4375-0.21094 0.29297-0.3125 0.71484-0.3125 1.2656 0 0.5625 0.10156 0.99219 0.3125 1.2812 0.20703 0.29297 0.50781 0.4375 0.90625 0.4375z"/>
  </symbol>
  <symbol id="h" overflow="visible">
   <path d="m4.0156-1.2031c0.39453 0 0.69531-0.14453 0.90625-0.4375 0.20703-0.28906 0.3125-0.71875 0.3125-1.2812 0-0.55078-0.10547-0.97266-0.3125-1.2656-0.21094-0.28906-0.51172-0.4375-0.90625-0.4375-0.40625 0-0.71875 0.14844-0.9375 0.4375-0.21094 0.29297-0.3125 0.71484-0.3125 1.2656 0 0.55469 0.10156 0.98047 0.3125 1.2812 0.21875 0.29297 0.53125 0.4375 0.9375 0.4375zm-1.25-3.7812c0.25781-0.34375 0.54688-0.59375 0.85938-0.75 0.3125-0.16406 0.67188-0.25 1.0781-0.25 0.71875 0 1.3047 0.28906 1.7656 0.85938 0.46875 0.57422 0.70312 1.3086 0.70312 2.2031 0 0.90625-0.23438 1.6484-0.70312 2.2188-0.46094 0.57422-1.0469 0.85938-1.7656 0.85938-0.40625 0-0.76562-0.078125-1.0781-0.23438-0.3125-0.16406-0.60156-0.42188-0.85938-0.76562v0.84375h-1.875v-8.125h1.875z"/>
  </symbol>
  <symbol id="g" overflow="visible">
   <path d="m0.125-5.8438h1.875l1.5625 3.9688 1.3438-3.9688h1.875l-2.4688 6.3906c-0.25 0.65625-0.54297 1.1133-0.875 1.375-0.32422 0.25781-0.75 0.39062-1.2812 0.39062h-1.0938v-1.2344h0.59375c0.3125 0 0.53906-0.054687 0.6875-0.15625 0.14453-0.09375 0.25781-0.27344 0.34375-0.53125l0.046875-0.17188z"/>
  </symbol>
  <symbol id="f" overflow="visible">
   <path d="m5.4688-5.6562v1.4062c-0.40625-0.16406-0.79688-0.28906-1.1719-0.375-0.36719-0.082031-0.71484-0.125-1.0469-0.125-0.35547 0-0.62109 0.046875-0.79688 0.14062-0.16797 0.085937-0.25 0.21875-0.25 0.40625 0 0.15625 0.0625 0.27734 0.1875 0.35938 0.13281 0.074219 0.36719 0.13281 0.70312 0.17188l0.32812 0.046875c0.95703 0.11719 1.6016 0.3125 1.9375 0.59375 0.33203 0.28125 0.5 0.71875 0.5 1.3125 0 0.625-0.23047 1.0938-0.6875 1.4062-0.46094 0.3125-1.1484 0.46875-2.0625 0.46875-0.38672 0-0.78906-0.03125-1.2031-0.09375-0.40625-0.0625-0.82812-0.15625-1.2656-0.28125v-1.4219c0.375 0.1875 0.75391 0.32812 1.1406 0.42188 0.39453 0.085938 0.79688 0.125 1.2031 0.125 0.36328 0 0.63281-0.046875 0.8125-0.14062 0.1875-0.10156 0.28125-0.25391 0.28125-0.45312 0-0.16406-0.0625-0.28906-0.1875-0.375-0.125-0.082031-0.38281-0.14453-0.76562-0.1875l-0.32812-0.046875c-0.82422-0.10156-1.4062-0.29688-1.75-0.57812-0.33594-0.28125-0.5-0.70703-0.5-1.2812 0-0.625 0.21094-1.082 0.64062-1.375 0.42578-0.30078 1.0781-0.45312 1.9531-0.45312 0.34375 0 0.70312 0.027344 1.0781 0.078125 0.38281 0.054688 0.80078 0.13672 1.25 0.25z"/>
  </symbol>
  <symbol id="k" overflow="visible">
   <path d="m6.3125-4.875c0.23828-0.36328 0.51953-0.64062 0.84375-0.82812 0.32031-0.1875 0.67969-0.28125 1.0781-0.28125 0.66406 0 1.1758 0.21094 1.5312 0.625 0.35156 0.40625 0.53125 1.0078 0.53125 1.7969v3.5625h-1.8906v-3.0469c0.007812-0.039063 0.015625-0.085937 0.015625-0.14062v-0.20312c0-0.41406-0.0625-0.71875-0.1875-0.90625-0.11719-0.1875-0.30859-0.28125-0.57812-0.28125-0.35547 0-0.63281 0.14844-0.82812 0.4375-0.19922 0.29297-0.29688 0.71484-0.29688 1.2656v2.875h-1.875v-3.0469c0-0.64453-0.058594-1.0625-0.17188-1.25-0.11719-0.1875-0.3125-0.28125-0.59375-0.28125-0.36719 0-0.64844 0.15234-0.84375 0.45312-0.1875 0.29297-0.28125 0.71094-0.28125 1.25v2.875h-1.875v-5.8438h1.875v0.85938c0.22656-0.33203 0.48828-0.58203 0.78125-0.75 0.30078-0.16406 0.63281-0.25 1-0.25 0.39453 0 0.75 0.10156 1.0625 0.29688 0.3125 0.1875 0.54688 0.46094 0.70312 0.8125z"/>
  </symbol>
  <symbol id="e" overflow="visible">
   <path d="m0.89062-5.8438h1.875v5.8438h-1.875zm0-2.2812h1.875v1.5312h-1.875z"/>
  </symbol>
  <symbol id="j" overflow="visible">
   <path d="m6.7812-3.5625v3.5625h-1.8906v-2.7188c0-0.50781-0.011719-0.85938-0.03125-1.0469-0.023437-0.19531-0.058594-0.33594-0.10938-0.42188-0.074219-0.125-0.17188-0.21875-0.29688-0.28125-0.125-0.070312-0.27344-0.10938-0.4375-0.10938-0.38672 0-0.69531 0.15234-0.92188 0.45312-0.21875 0.30469-0.32812 0.71875-0.32812 1.25v2.875h-1.875v-5.8438h1.875v0.85938c0.28125-0.34375 0.57812-0.59375 0.89062-0.75 0.32031-0.16406 0.67578-0.25 1.0625-0.25 0.66406 0 1.1758 0.21094 1.5312 0.625 0.35156 0.40625 0.53125 1.0078 0.53125 1.7969z"/>
  </symbol>
  <symbol id="u" overflow="visible">
   <path d="m0.15625-5.8438h1.875l1.4531 4.0312 1.4531-4.0312h1.875l-2.2969 5.8438h-2.0625z"/>
  </symbol>
  <symbol id="t" overflow="visible">
   <path d="m0.89062-8.125h1.875v8.125h-1.875z"/>
  </symbol>
  <symbol id="s" overflow="visible">
   <path d="m4.75-8.125v1.2344h-1.0469c-0.26172 0-0.44531 0.046875-0.54688 0.14062-0.10547 0.09375-0.15625 0.26172-0.15625 0.5v0.40625h1.5938v1.3281h-1.5938v4.5156h-1.875v-4.5156h-0.92188v-1.3281h0.92188v-0.40625c0-0.63281 0.17578-1.1016 0.53125-1.4062 0.36328-0.3125 0.91406-0.46875 1.6562-0.46875z"/>
  </symbol>
  <symbol id="d" overflow="visible">
   <path d="m3.6719-4.6562c-0.40625 0-0.71875 0.15234-0.9375 0.45312-0.21875 0.30469-0.32812 0.73047-0.32812 1.2812 0 0.5625 0.10938 0.99609 0.32812 1.2969 0.21875 0.29297 0.53125 0.4375 0.9375 0.4375 0.41406 0 0.72656-0.14453 0.9375-0.4375 0.21875-0.30078 0.32812-0.73438 0.32812-1.2969 0-0.55078-0.10938-0.97656-0.32812-1.2812-0.21094-0.30078-0.52344-0.45312-0.9375-0.45312zm0-1.3281c1.0078 0 1.7969 0.27344 2.3594 0.8125 0.57031 0.54297 0.85938 1.293 0.85938 2.25 0 0.96094-0.28906 1.7148-0.85938 2.2656-0.5625 0.54297-1.3516 0.8125-2.3594 0.8125-1 0-1.7891-0.26953-2.3594-0.8125-0.57422-0.55078-0.85938-1.3047-0.85938-2.2656 0-0.95703 0.28516-1.707 0.85938-2.25 0.57031-0.53906 1.3594-0.8125 2.3594-0.8125z"/>
  </symbol>
  <symbol id="r" overflow="visible">
   <path d="m6.7812-3.5625v3.5625h-1.8906v-2.7188c0-0.50781-0.011719-0.85938-0.03125-1.0469-0.023437-0.19531-0.058594-0.33594-0.10938-0.42188-0.074219-0.125-0.17188-0.21875-0.29688-0.28125-0.125-0.070312-0.27344-0.10938-0.4375-0.10938-0.38672 0-0.69531 0.15234-0.92188 0.45312-0.21875 0.30469-0.32812 0.71875-0.32812 1.25v2.875h-1.875v-8.125h1.875v3.1406c0.28125-0.34375 0.57812-0.59375 0.89062-0.75 0.32031-0.16406 0.67578-0.25 1.0625-0.25 0.66406 0 1.1758 0.21094 1.5312 0.625 0.35156 0.40625 0.53125 1.0078 0.53125 1.7969z"/>
  </symbol>
  <symbol id="q" overflow="visible">
   <path d="m0.98438-7.7969h2.2344l2.8438 5.3438v-5.3438h1.9062v7.7969h-2.25l-2.8281-5.3438v5.3438h-1.9062z"/>
  </symbol>
  <symbol id="p" overflow="visible">
   <path d="m0.82812-2.2812v-3.5625h1.8906v0.57812c0 0.32422-0.007812 0.72656-0.015625 1.2031v0.95312c0 0.46875 0.007813 0.80859 0.03125 1.0156 0.03125 0.21094 0.070313 0.35938 0.125 0.45312 0.082031 0.11719 0.17969 0.21094 0.29688 0.28125 0.125 0.0625 0.26953 0.09375 0.4375 0.09375 0.38281 0 0.6875-0.14453 0.90625-0.4375 0.22656-0.30078 0.34375-0.71875 0.34375-1.25v-2.8906h1.875v5.8438h-1.875v-0.84375c-0.28125 0.34375-0.58594 0.60156-0.90625 0.76562-0.3125 0.15625-0.65625 0.23438-1.0312 0.23438-0.67969 0-1.1953-0.20703-1.5469-0.625-0.35547-0.41406-0.53125-1.0195-0.53125-1.8125z"/>
  </symbol>
  <symbol id="o" overflow="visible">
   <path d="m0.98438-7.7969h3.3281c0.98828 0 1.75 0.22656 2.2812 0.67188 0.53125 0.4375 0.79688 1.0625 0.79688 1.875s-0.26562 1.4453-0.79688 1.8906c-0.53125 0.4375-1.293 0.65625-2.2812 0.65625h-1.3281v2.7031h-2zm2 1.4688v2.1719h1.125c0.38281 0 0.67969-0.09375 0.89062-0.28125 0.21875-0.19531 0.32812-0.46875 0.32812-0.8125s-0.10938-0.60938-0.32812-0.79688c-0.21094-0.1875-0.50781-0.28125-0.89062-0.28125z"/>
  </symbol>
  <symbol id="n" overflow="visible">
   <path d="m0.89062-5.8438h1.875v5.7344c0 0.78125-0.1875 1.3789-0.5625 1.7969-0.375 0.41406-0.92188 0.625-1.6406 0.625h-0.92188v-1.2344h0.32812c0.35156 0 0.59375-0.085937 0.71875-0.25 0.13281-0.15625 0.20312-0.46875 0.20312-0.9375zm0-2.2812h1.875v1.5312h-1.875z"/>
  </symbol>
  <symbol id="m" overflow="visible">
   <path d="m5.625-5.6562v1.5156c-0.26172-0.17578-0.52344-0.30469-0.78125-0.39062-0.25-0.082031-0.51172-0.125-0.78125-0.125-0.52344 0-0.92969 0.15625-1.2188 0.46875-0.29297 0.30469-0.4375 0.72656-0.4375 1.2656 0 0.55469 0.14453 0.98047 0.4375 1.2812 0.28906 0.30469 0.69531 0.45312 1.2188 0.45312 0.28906 0 0.56641-0.039062 0.82812-0.125 0.25781-0.09375 0.50391-0.22266 0.73438-0.39062v1.5312c-0.29297 0.10547-0.58984 0.17969-0.89062 0.23438-0.30469 0.0625-0.60547 0.09375-0.90625 0.09375-1.0547 0-1.8828-0.26953-2.4844-0.8125-0.59375-0.53906-0.89062-1.2969-0.89062-2.2656 0-0.95703 0.29688-1.707 0.89062-2.25 0.60156-0.53906 1.4297-0.8125 2.4844-0.8125 0.30078 0 0.59766 0.027344 0.89062 0.078125 0.30078 0.054688 0.60156 0.13672 0.90625 0.25z"/>
  </symbol>
 </defs>
 <g>
  <path d="m409.85 130.38c-2.1367-76.945-55.574-47.023-32.062-130.38-49.16 25.648-91.91 70.535-83.359 128.25 36.336-12.824 79.082-12.824 115.42 2.1367z" fill-rule="evenodd"/>
  <path d="m497.48 215.88c53.434-55.574-4.2734-72.672 70.535-115.42-53.434-17.098-115.42-12.824-149.62 34.199 36.336 14.961 64.121 44.887 79.082 81.223z" fill-rule="evenodd"/>
  <path d="m501.75 339.85c74.809-2.1367 47.023-55.574 128.25-32.062-23.512-49.16-70.535-91.91-128.25-83.359 14.961 36.336 14.961 79.082 0 115.42z" fill-rule="evenodd"/>
  <path d="m416.26 427.48c53.434 53.434 70.535-4.2734 113.28 70.535 17.098-53.434 12.824-115.42-32.062-149.62-17.098 36.336-44.887 64.121-81.223 79.082z" fill-rule="evenodd"/>
  <path d="m292.29 431.75c0 74.809 53.434 47.023 29.922 128.25 51.297-23.512 91.91-70.535 83.359-128.25-36.336 14.961-76.945 14.961-113.28 0z" fill-rule="evenodd"/>
  <path d="m202.52 346.26c-53.434 53.434 4.2734 70.535-70.535 113.28 53.434 17.098 115.42 12.824 151.75-32.062-36.336-17.098-66.258-44.887-81.223-81.223z" fill-rule="evenodd"/>
  <path d="m200.38 222.29c-76.945 0-47.023 53.434-130.38 29.922 25.648 51.297 70.535 91.91 128.25 83.359-12.824-36.336-12.824-76.945 2.1367-113.28z" fill-rule="evenodd"/>
  <path d="m285.88 132.52c-55.574-53.434-72.672 4.2734-115.42-70.535-17.098 53.434-12.824 115.42 34.199 151.75 14.961-36.336 44.887-66.258 81.223-81.223z" fill-rule="evenodd"/>
  <path d="m350 134.66c81.223 0 145.34 66.258 145.34 145.34 0 81.223-64.121 145.34-145.34 145.34-79.082 0-145.34-64.121-145.34-145.34 0-79.082 66.258-145.34 145.34-145.34zm-55.574 85.496c14.961 0 25.648 12.824 25.648 27.785s-10.688 27.785-25.648 27.785c-14.961 0-27.785-12.824-27.785-27.785s12.824-27.785 27.785-27.785zm113.28 0c-14.961 0-27.785 12.824-27.785 27.785s12.824 27.785 27.785 27.785c14.961 0 25.648-12.824 25.648-27.785s-10.688-27.785-25.648-27.785zm-132.52 106.87c49.16 32.062 100.46 32.062 149.62 0 8.5508-4.2734 8.5508-2.1367 0 8.5508-40.609 49.16-106.87 49.16-149.62 0-8.5508-10.688-6.4141-12.824 0-8.5508z" fill-rule="evenodd"/>
  <use x="70" y="592.0625" xlink:href="#v"/>
  <use x="77.84375" y="592.0625" xlink:href="#c"/>
  <use x="83.113281" y="592.0625" xlink:href="#a"/>
  <use x="90.363281" y="592.0625" xlink:href="#i"/>
  <use x="97.574219" y="592.0625" xlink:href="#b"/>
  <use x="102.683594" y="592.0625" xlink:href="#a"/>
  <use x="109.929688" y="592.0625" xlink:href="#l"/>
  <use x="121.300781" y="592.0625" xlink:href="#h"/>
  <use x="128.949219" y="592.0625" xlink:href="#g"/>
  <use x="139.636719" y="592.0625" xlink:href="#g"/>
  <use x="146.605469" y="592.0625" xlink:href="#i"/>
  <use x="153.816406" y="592.0625" xlink:href="#f"/>
  <use x="160.175781" y="592.0625" xlink:href="#k"/>
  <use x="171.3125" y="592.0625" xlink:href="#e"/>
  <use x="174.976562" y="592.0625" xlink:href="#j"/>
  <use x="182.585938" y="592.0625" xlink:href="#u"/>
  <use x="189.550781" y="592.0625" xlink:href="#e"/>
  <use x="193.214844" y="592.0625" xlink:href="#f"/>
  <use x="199.574219" y="592.0625" xlink:href="#e"/>
  <use x="203.238281" y="592.0625" xlink:href="#h"/>
  <use x="210.886719" y="592.0625" xlink:href="#t"/>
  <use x="214.550781" y="592.0625" xlink:href="#a"/>
  <use x="70" y="602.75" xlink:href="#s"/>
  <use x="74.648438" y="602.75" xlink:href="#c"/>
  <use x="79.921875" y="602.75" xlink:href="#d"/>
  <use x="87.261719" y="602.75" xlink:href="#k"/>
  <use x="102.117188" y="602.75" xlink:href="#b"/>
  <use x="107.226562" y="602.75" xlink:href="#r"/>
  <use x="114.835938" y="602.75" xlink:href="#a"/>
  <use x="125.804688" y="602.75" xlink:href="#q"/>
  <use x="134.75" y="602.75" xlink:href="#d"/>
  <use x="142.089844" y="602.75" xlink:href="#p"/>
  <use x="149.699219" y="602.75" xlink:href="#j"/>
  <use x="161.027344" y="602.75" xlink:href="#o"/>
  <use x="168.859375" y="602.75" xlink:href="#c"/>
  <use x="174.128906" y="602.75" xlink:href="#d"/>
  <use x="181.472656" y="602.75" xlink:href="#n"/>
  <use x="185.136719" y="602.75" xlink:href="#a"/>
  <use x="192.382812" y="602.75" xlink:href="#m"/>
  <use x="198.71875" y="602.75" xlink:href="#b"/>
 </g>
</svg>
