<svg viewBox="0 0 1706 200" xmlns="http://www.w3.org/2000/svg" xmlns:xlink="http://www.w3.org/1999/xlink"><path fill="rgba(41,44,48,1)" d="M 0 0 C 83 0 83 66 166 66 L 166 66 L 166 0 L 0 0 Z" stroke-width="0"></path> <path fill="rgba(41,44,48,1)" d="M 165 66 C 303.5 66 303.5 30 442 30 L 442 30 L 442 0 L 165 0 Z" stroke-width="0"></path> <path fill="rgba(41,44,48,1)" d="M 441 30 C 620 30 620 86 799 86 L 799 86 L 799 0 L 441 0 Z" stroke-width="0"></path><path fill="rgba(41,44,48,1)" d="M 798 86 C 962 86 962 157 1126 157 L 1126 157 L 1126 0 L 798 0 Z" stroke-width="0"></path><path fill="rgba(41,44,48,1)" d="M 1125 157 C 1265 157 1265 118 1405 118 L 1405 118 L 1405 0 L 1125 0 Z" stroke-width="0"></path><path fill="rgba(41,44,48,1)" d="M 1404 118 C 1485.5 118 1485.5 41 1567 41 L 1567 41 L 1567 0 L 1404 0 Z" stroke-width="0"></path><path fill="rgba(41,44,48,1)" d="M 1566 41 C 1636 41 1636 0 1706 0 L 1706 0 L 1706 0 L 1566 0 Z" stroke-width="0"></path></svg>
