<svg version="1.1" id="Layer_1" xmlns="http://www.w3.org/2000/svg" xmlns:xlink="http://www.w3.org/1999/xlink" x="0px" y="0px"
	 width="100%" viewBox="0 0 640 640" enable-background="new 0 0 640 640" xml:space="preserve">
<path fill="#0B0B0B" opacity="1.000000" stroke="none" 
	d="
M1.000000,372.000000 
	C1.000000,248.353912 1.000000,124.707825 1.000000,1.030870 
	C214.277237,1.030870 427.554474,1.030870 640.915894,1.030870 
	C640.915894,214.241714 640.915894,427.483459 640.915894,640.862610 
	C427.666718,640.862610 214.333374,640.862610 1.000000,640.862610 
	C1.000000,552.895996 1.000000,464.910645 1.258051,376.464508 
	C1.680036,376.055939 1.843969,376.108124 2.004920,376.618835 
	C2.001445,462.740356 2.025569,548.403320 1.926967,634.066223 
	C1.922094,638.300049 2.551712,640.121643 7.530901,640.118347 
	C216.522491,639.980286 425.514191,639.986145 634.505798,640.093811 
	C638.900085,640.096069 640.098206,638.962402 640.095825,634.529541 
	C639.985718,425.537933 639.987305,216.546249 640.088379,7.554622 
	C640.090454,3.258110 639.118713,1.897500 634.589905,1.900007 
	C425.598297,2.015718 216.606613,2.018190 7.615024,1.890314 
	C2.796048,1.887366 1.912555,3.464924 1.916435,7.849638 
	C2.023822,129.178040 2.005498,250.506561 1.762045,371.913208 
	C1.344052,371.994232 1.172026,371.997101 1.000000,372.000000 
z"/>
<path fill="#FFFFFF" opacity="1.000000" stroke="none" 
	d="
M1.000000,372.399811 
	C1.172026,371.997101 1.344052,371.994232 2.224653,371.989868 
	C168.170013,371.988434 333.406799,371.988434 499.003784,371.988434 
	C498.871368,373.570984 498.773590,374.739716 498.668182,375.999390 
	C496.457184,375.999390 494.632111,375.999359 492.807068,375.999359 
	C331.202515,375.999146 169.597946,375.998322 7.993376,376.005371 
	C5.998216,376.005432 4.003060,376.106445 2.007903,376.160309 
	C1.843969,376.108124 1.680036,376.055939 1.258051,376.001862 
	C1.000000,374.933197 1.000000,373.866425 1.000000,372.399811 
z"/>
<path fill="#000000" opacity="1.000000" stroke="none" 
	d="
M2.004920,376.618835 
	C4.003060,376.106445 5.998216,376.005432 7.993376,376.005371 
	C169.597946,375.998322 331.202515,375.999146 492.807068,375.999359 
	C494.632111,375.999359 496.457184,375.999390 498.668182,375.999390 
	C498.773590,374.739716 498.871368,373.570984 499.003784,371.988434 
	C333.406799,371.988434 168.170013,371.988434 2.470619,371.911743 
	C2.005498,250.506561 2.023822,129.178040 1.916435,7.849638 
	C1.912555,3.464924 2.796048,1.887366 7.615024,1.890314 
	C216.606613,2.018190 425.598297,2.015718 634.589905,1.900007 
	C639.118713,1.897500 640.090454,3.258110 640.088379,7.554622 
	C639.987305,216.546249 639.985718,425.537933 640.095825,634.529541 
	C640.098206,638.962402 638.900085,640.096069 634.505798,640.093811 
	C425.514191,639.986145 216.522491,639.980286 7.530901,640.118347 
	C2.551712,640.121643 1.922094,638.300049 1.926967,634.066223 
	C2.025569,548.403320 2.001445,462.740356 2.004920,376.618835 
M330.347260,263.099365 
	C330.270935,279.541504 330.234802,295.984039 330.086304,312.425537 
	C330.054413,315.956116 331.611053,318.142181 335.012848,317.479950 
	C336.894592,317.113617 339.867981,314.940033 339.883301,313.553894 
	C340.027710,300.452240 339.641113,287.344727 339.766754,273.345123 
	C340.183502,268.763580 339.210114,263.417419 341.241638,259.724060 
	C354.868195,234.950211 369.086090,210.500198 383.259613,186.030548 
	C384.835449,183.309921 386.146362,180.956451 383.208099,178.699173 
	C380.970673,176.980270 375.739288,178.671677 374.306671,181.242722 
	C362.080322,203.184494 349.856201,225.127502 337.603943,247.054810 
	C336.937744,248.247055 336.026611,249.302444 334.884338,250.906158 
	C328.601746,240.452667 322.664215,230.659760 316.812622,220.815750 
	C308.908722,207.519180 301.070099,194.183823 293.205597,180.863861 
	C291.869232,178.600510 286.610992,177.077026 284.543365,178.686829 
	C281.851562,180.782623 282.219421,182.938736 284.197388,185.850357 
	C289.330750,193.406815 294.002655,201.283173 298.711151,209.120514 
	C309.321259,226.781143 319.842163,244.495361 330.347260,263.099365 
M31.948265,138.553955 
	C34.223351,152.133911 41.626362,162.412964 52.575348,170.337341 
	C65.980789,180.039581 81.341492,185.380890 97.012512,189.973557 
	C112.957870,194.646637 128.948318,199.196106 143.296967,207.961060 
	C153.069077,213.930389 161.198196,221.570953 164.720001,232.719437 
	C172.205978,256.416779 166.482224,289.390503 133.411316,302.878540 
	C118.081863,309.130737 102.067772,310.301392 85.842712,307.904846 
	C61.949741,304.375732 41.859745,294.217072 28.138226,273.495117 
	C26.624361,271.208923 24.998795,268.996704 23.343166,266.633301 
	C21.928755,267.768433 20.915995,268.618347 19.863346,269.415558 
	C18.820295,270.205505 17.737024,270.942322 16.727133,271.662689 
	C33.201256,296.997192 55.483410,311.603943 84.792580,315.124969 
	C105.214737,317.578430 125.108261,316.041138 143.411438,305.822906 
	C163.835861,294.420410 174.035934,276.656860 175.059097,253.287857 
	C176.106827,229.358231 166.262680,211.585983 145.144745,200.679413 
	C134.727448,195.299286 123.669296,190.974899 112.562576,187.157928 
	C95.621078,181.335770 78.203827,176.891617 62.400166,168.054459 
	C46.432835,159.125793 38.288036,145.817932 38.417309,127.364014 
	C38.563831,106.446281 46.396278,89.526566 65.780869,80.686340 
	C93.547791,68.023399 121.069489,69.295380 146.731369,86.990318 
	C152.545151,90.999168 157.445938,96.332077 162.848022,101.127464 
	C164.643234,99.149139 166.624649,96.965614 168.669769,94.711868 
	C168.643417,94.656364 168.574509,94.297333 168.359573,94.088852 
	C143.281403,69.763542 113.535789,60.678677 79.442009,68.334602 
	C42.764980,76.570602 26.702091,104.965363 31.948265,138.553955 
M612.867004,198.647217 
	C602.328003,185.586655 588.369141,179.104980 571.930420,177.536667 
	C545.786255,175.042404 520.125122,185.916183 508.747620,213.573715 
	C502.528259,228.692368 501.174225,244.372879 502.897308,260.545807 
	C505.938446,289.090027 522.569946,316.110565 560.442566,318.467010 
	C584.166138,319.943085 606.585632,310.717438 618.839966,287.162292 
	C624.473206,276.334045 626.927185,264.661957 627.432495,252.592438 
	C628.237061,233.377853 625.125854,215.121246 612.867004,198.647217 
M214.100235,257.499969 
	C214.062607,275.660126 214.111069,293.821198 213.916565,311.979675 
	C213.876450,315.724091 214.981277,317.683472 218.858276,317.702118 
	C222.721313,317.720673 223.949280,315.727875 223.936310,312.030273 
	C223.796021,272.045044 223.753937,232.059464 223.701874,192.073959 
	C223.699814,190.491287 223.866104,188.908386 223.938293,187.607681 
	C239.042297,187.607681 253.676422,187.528763 268.308533,187.665268 
	C271.802063,187.697861 273.681915,186.523544 273.866760,182.975891 
	C274.046661,179.523193 272.629944,177.716064 268.954346,177.717148 
	C235.645416,177.726990 202.336426,177.705658 169.027649,177.618835 
	C165.758545,177.610306 164.057419,178.705261 163.973648,182.158310 
	C163.870102,186.427704 166.053970,187.428711 169.932449,187.387222 
	C184.538849,187.230957 199.147934,187.324524 214.100235,187.324524 
	C214.100235,210.582901 214.100235,233.541412 214.100235,257.499969 
M420.897369,214.500000 
	C420.944550,204.173599 420.919830,193.846115 421.077972,183.521408 
	C421.133331,179.907318 419.542389,178.295044 416.057220,178.274109 
	C412.486450,178.252670 410.961853,180.098907 411.069977,183.578384 
	C411.188965,187.406769 411.277435,191.238083 411.273041,195.067993 
	C411.228027,234.376404 411.180084,273.684875 411.068207,312.993103 
	C411.058380,316.446381 412.134583,318.199463 415.910919,318.199432 
	C442.212708,318.199066 468.514557,318.305237 494.816254,318.407288 
	C498.093201,318.419983 499.720001,316.965302 499.768280,313.638031 
	C499.837433,308.874359 496.762451,308.423523 493.077240,308.435272 
	C470.924500,308.505981 448.771606,308.522369 426.618744,308.536377 
	C424.853821,308.537506 423.088806,308.383057 420.897339,308.281067 
	C420.897339,277.064331 420.897339,246.282166 420.897369,214.500000 
M102.029007,466.484528 
	C102.023338,465.486176 102.024231,464.487701 102.011055,463.489441 
	C101.717484,441.241608 90.084900,427.525757 67.958626,424.859436 
	C58.288361,423.694092 48.374916,424.642059 38.578808,424.376007 
	C34.968971,424.277954 34.058281,425.641266 34.073929,429.061127 
	C34.189663,454.351105 34.208260,479.642242 34.056313,504.931854 
	C34.033451,508.737030 35.379108,509.936890 38.970146,509.865540 
	C47.120617,509.703491 55.284271,509.996674 63.426796,509.688324 
	C78.228249,509.127869 90.641373,503.636078 96.853638,489.497284 
	C99.838051,482.704895 100.373535,474.836548 102.029007,466.484528 
M425.010162,433.568268 
	C421.710907,428.730225 416.875275,425.677277 411.349457,425.262207 
	C400.597290,424.454468 389.771729,424.523285 378.977417,424.550354 
	C378.020233,424.552734 376.244232,426.905762 376.236725,428.175262 
	C376.083771,453.983948 376.085815,479.794159 376.274536,505.602509 
	C376.284729,506.993134 378.202454,508.369781 379.232208,509.752899 
	C380.229126,508.391785 382.008484,507.072418 382.083740,505.662079 
	C382.367065,500.353729 382.066589,495.015869 382.039185,489.688782 
	C382.007050,483.444183 382.031647,477.199310 382.031647,470.905792 
	C388.258118,470.905792 393.761383,471.092468 399.243500,470.832336 
	C402.290741,470.687744 404.061523,471.692413 405.614166,474.306641 
	C412.311615,485.583221 419.087738,496.819153 426.191956,507.839966 
	C427.023865,509.130493 430.062897,508.998260 432.078735,509.525574 
	C432.101715,507.981750 432.733459,506.065460 432.052460,504.952332 
	C425.980011,495.026917 419.674286,485.244324 413.441132,475.417175 
	C412.231964,473.510864 411.039398,471.593994 409.753143,469.544983 
	C427.246857,464.189362 433.459076,449.643738 425.010162,433.568268 
M323.503479,424.126343 
	C319.344116,424.249786 315.162933,424.691254 311.031433,424.408203 
	C306.809570,424.118958 306.056610,425.915558 306.078430,429.680359 
	C306.222290,454.500885 306.278107,479.323669 306.055695,504.142975 
	C306.015289,508.650513 307.422089,509.942017 311.729187,509.849304 
	C325.381226,509.555542 339.039825,509.503845 352.695801,509.513153 
	C355.114746,509.514801 357.201324,509.611481 357.177582,506.487183 
	C357.152008,503.117645 354.880707,503.830414 352.590637,503.853241 
	C339.164215,503.987030 325.735779,503.918915 312.279724,503.918915 
	C312.279724,492.392975 312.279724,481.315369 312.279724,469.956299 
	C323.656769,469.956299 334.786591,470.005524 345.915344,469.916870 
	C348.291443,469.897980 351.923126,471.304565 351.820312,466.878815 
	C351.727936,462.902130 348.396149,464.138519 346.117188,464.126709 
	C334.856171,464.068420 323.594666,464.100159 312.234192,464.100159 
	C312.234192,452.505096 312.234192,441.418671 312.234192,429.996124 
	C325.384064,429.996124 338.333588,429.901245 351.280396,430.047974 
	C355.765167,430.098755 356.270874,428.095734 355.092804,424.126465 
	C344.775177,424.126465 334.638763,424.126465 323.503479,424.126343 
M170.694519,509.572083 
	C171.862930,508.372162 173.031342,507.172211 174.199753,505.972290 
	C172.812195,505.253204 171.431686,503.925537 170.036026,503.909424 
	C156.447922,503.752502 142.857315,503.815002 129.302200,503.815002 
	C129.302200,492.363708 129.302200,481.281769 129.302200,469.946106 
	C131.204315,469.946106 132.846527,469.944000 134.488724,469.946472 
	C144.654526,469.961823 154.823059,470.093567 164.982834,469.853790 
	C166.308823,469.822510 167.589813,467.883759 168.891678,466.828522 
	C167.613861,465.902374 166.408966,464.837311 165.025970,464.111542 
	C164.381729,463.773468 163.392242,464.111847 162.559250,464.112152 
	C151.468048,464.116333 140.376846,464.114929 129.269073,464.114929 
	C129.269073,452.452515 129.269073,441.363708 129.269073,429.979950 
	C142.297440,429.979950 155.094162,429.867126 167.886826,430.045563 
	C171.967941,430.102448 173.455963,428.782196 172.141602,424.155304 
	C170.414307,424.155304 168.631332,424.140778 166.848663,424.157623 
	C154.022858,424.278961 141.193680,424.619446 128.373199,424.414429 
	C124.016113,424.344727 123.053970,425.684540 123.084267,429.810852 
	C123.266586,454.641052 123.278450,479.474030 123.080788,504.303986 
	C123.047646,508.467102 124.157661,509.929779 128.367630,509.846222 
	C142.190140,509.571747 156.018402,509.588226 170.694519,509.572083 
M574.502319,509.776825 
	C583.993225,509.681335 593.484436,509.503876 602.974731,509.544739 
	C605.529053,509.555725 607.686951,509.153015 607.007019,506.243103 
	C606.758362,505.178741 604.261230,503.985992 602.775330,503.966614 
	C589.334045,503.791687 575.889648,503.864166 562.412231,503.864166 
	C562.412231,492.397919 562.412231,481.207306 562.412231,469.973877 
	C574.117920,469.973877 585.445190,469.982208 596.772461,469.966766 
	C598.997559,469.963745 601.848206,470.767548 601.872986,467.081207 
	C601.897461,463.448669 599.132141,464.080292 596.839478,464.081543 
	C585.387695,464.087921 573.935913,464.084503 562.346313,464.084503 
	C562.346313,452.547577 562.346313,441.333069 562.346313,429.974945 
	C575.470825,429.974945 588.285034,429.860291 601.095154,430.038879 
	C605.416992,430.099121 606.272461,428.339417 605.191406,424.397858 
	C589.748779,424.397858 574.467651,424.317719 559.192139,424.573853 
	C558.146362,424.591370 556.259705,427.120789 556.250427,428.492157 
	C556.076050,454.145172 556.172485,479.799927 556.074951,505.453766 
	C556.062256,508.798981 557.369385,509.899109 560.510498,509.805756 
	C564.838074,509.677094 569.172363,509.775604 574.502319,509.776825 
M264.813934,424.677338 
	C241.188004,419.413055 222.944504,429.910492 217.611572,452.543396 
	C216.073303,459.071747 215.879501,466.109741 216.227859,472.854218 
	C217.344803,494.479858 230.508636,508.272461 251.503906,510.580231 
	C267.212677,512.307007 283.013733,502.924957 288.194641,488.719879 
	C284.987488,485.480225 283.105530,486.839630 281.045563,490.288239 
	C274.389374,501.431458 264.225372,506.030060 251.510483,504.883087 
	C239.295319,503.781219 229.894287,498.081451 225.315552,486.346344 
	C220.362106,473.650818 220.169281,460.598724 225.077377,447.845184 
	C229.471375,436.427521 238.089050,429.838501 250.403198,429.055603 
	C263.223907,428.240509 274.169800,431.634094 280.276398,444.340027 
	C282.196716,448.335541 283.508301,448.271820 287.681946,444.434052 
	C282.760712,435.167969 276.324402,427.619202 264.813934,424.677338 
M530.676880,472.838684 
	C525.149841,469.915710 519.737549,466.741364 514.059875,464.148254 
	C509.402435,462.021118 504.286041,460.898926 499.628815,458.771393 
	C492.245514,455.398529 490.038910,450.926147 490.914215,442.686218 
	C491.580170,436.417145 495.763336,431.747620 502.554352,429.959198 
	C511.932526,427.489441 520.373596,429.054779 527.314819,436.221130 
	C529.062622,438.025604 530.689514,438.977844 532.745361,436.802765 
	C535.037842,434.377319 533.125061,432.983307 531.426208,431.550293 
	C521.219055,422.940308 509.844055,420.926117 497.458466,425.925323 
	C490.242310,428.838043 486.091919,434.477264 485.115234,442.179932 
	C484.069916,450.423950 486.388550,457.547485 493.816833,461.934082 
	C498.055634,464.437317 502.803711,466.112793 507.402374,467.962372 
	C512.168396,469.879303 517.185547,471.229401 521.813171,473.418610 
	C527.992493,476.341858 530.728210,481.499176 530.237793,488.458527 
	C529.758667,495.257843 526.573853,500.097260 520.437378,502.888123 
	C509.237976,507.981659 494.697357,504.138702 487.307831,494.254059 
	C484.161865,490.045929 483.616058,490.047821 480.141998,494.279053 
	C488.778046,508.273224 504.912384,514.171570 520.331543,508.971313 
	C535.654663,503.803528 541.035278,486.140656 530.676880,472.838684 
M455.516998,424.256012 
	C454.708832,425.523285 453.201996,426.787018 453.195557,428.058319 
	C453.063660,454.037598 453.055084,480.018158 453.255463,505.996643 
	C453.265137,507.250519 455.415100,508.487885 456.568420,509.732910 
	C457.466187,508.431854 459.140259,507.134857 459.147095,505.829132 
	C459.282257,480.018768 459.269348,454.207062 459.081635,428.397095 
	C459.071503,427.002411 457.267700,425.620789 455.516998,424.256012 
z"/>
<path fill="#F4F4F4" opacity="1.000000" stroke="none" 
	d="
M31.885406,138.120850 
	C26.702091,104.965363 42.764980,76.570602 79.442009,68.334602 
	C113.535789,60.678677 143.281403,69.763542 168.359573,94.088852 
	C168.574509,94.297333 168.643417,94.656364 168.669769,94.711868 
	C166.624649,96.965614 164.643234,99.149139 162.848022,101.127464 
	C157.445938,96.332077 152.545151,90.999168 146.731369,86.990318 
	C121.069489,69.295380 93.547791,68.023399 65.780869,80.686340 
	C46.396278,89.526566 38.563831,106.446281 38.417309,127.364014 
	C38.288036,145.817932 46.432835,159.125793 62.400166,168.054459 
	C78.203827,176.891617 95.621078,181.335770 112.562576,187.157928 
	C123.669296,190.974899 134.727448,195.299286 145.144745,200.679413 
	C166.262680,211.585983 176.106827,229.358231 175.059097,253.287857 
	C174.035934,276.656860 163.835861,294.420410 143.411438,305.822906 
	C125.108261,316.041138 105.214737,317.578430 84.792580,315.124969 
	C55.483410,311.603943 33.201256,296.997192 16.727133,271.662689 
	C17.737024,270.942322 18.820295,270.205505 19.863346,269.415558 
	C20.915995,268.618347 21.928755,267.768433 23.343166,266.633301 
	C24.998795,268.996704 26.624361,271.208923 28.138226,273.495117 
	C41.859745,294.217072 61.949741,304.375732 85.842712,307.904846 
	C102.067772,310.301392 118.081863,309.130737 133.411316,302.878540 
	C166.482224,289.390503 172.205978,256.416779 164.720001,232.719437 
	C161.198196,221.570953 153.069077,213.930389 143.296967,207.961060 
	C128.948318,199.196106 112.957870,194.646637 97.012512,189.973557 
	C81.341492,185.380890 65.980789,180.039581 52.575348,170.337341 
	C41.626362,162.412964 34.223351,152.133911 31.885406,138.120850 
z"/>
<path fill="#979797" opacity="1.000000" stroke="none" 
	d="
M613.082520,198.930618 
	C625.125854,215.121246 628.237061,233.377853 627.432495,252.592438 
	C626.927185,264.661957 624.473206,276.334045 618.839966,287.162292 
	C606.585632,310.717438 584.166138,319.943085 560.442566,318.467010 
	C522.569946,316.110565 505.938446,289.090027 502.897308,260.545807 
	C501.174225,244.372879 502.528259,228.692368 508.747620,213.573715 
	C520.125122,185.916183 545.786255,175.042404 571.930420,177.536667 
	C588.369141,179.104980 602.328003,185.586655 613.082520,198.930618 
M512.694031,234.350067 
	C512.465942,242.483704 511.576843,250.665329 512.163086,258.739838 
	C513.067383,271.195587 516.694580,282.993378 524.996948,292.726654 
	C537.401306,307.268982 553.815674,310.890656 571.948120,309.119232 
	C589.899902,307.365417 603.264893,298.648712 611.080688,282.194244 
	C618.469604,266.638336 619.357910,250.179031 617.099060,233.398834 
	C611.936646,195.049164 582.802063,181.410660 552.106812,187.599030 
	C529.852417,192.085678 516.009033,208.834381 512.694031,234.350067 
z"/>
<path fill="#F2F2F2" opacity="1.000000" stroke="none" 
	d="
M214.100235,256.999939 
	C214.100235,233.541412 214.100235,210.582901 214.100235,187.324524 
	C199.147934,187.324524 184.538849,187.230957 169.932449,187.387222 
	C166.053970,187.428711 163.870102,186.427704 163.973648,182.158310 
	C164.057419,178.705261 165.758545,177.610306 169.027649,177.618835 
	C202.336426,177.705658 235.645416,177.726990 268.954346,177.717148 
	C272.629944,177.716064 274.046661,179.523193 273.866760,182.975891 
	C273.681915,186.523544 271.802063,187.697861 268.308533,187.665268 
	C253.676422,187.528763 239.042297,187.607681 223.938293,187.607681 
	C223.866104,188.908386 223.699814,190.491287 223.701874,192.073959 
	C223.753937,232.059464 223.796021,272.045044 223.936310,312.030273 
	C223.949280,315.727875 222.721313,317.720673 218.858276,317.702118 
	C214.981277,317.683472 213.876450,315.724091 213.916565,311.979675 
	C214.111069,293.821198 214.062607,275.660126 214.100235,256.999939 
z"/>
<path fill="#939393" opacity="1.000000" stroke="none" 
	d="
M420.897339,215.000000 
	C420.897339,246.282166 420.897339,277.064331 420.897339,308.281067 
	C423.088806,308.383057 424.853821,308.537506 426.618744,308.536377 
	C448.771606,308.522369 470.924500,308.505981 493.077240,308.435272 
	C496.762451,308.423523 499.837433,308.874359 499.768280,313.638031 
	C499.720001,316.965302 498.093201,318.419983 494.816254,318.407288 
	C468.514557,318.305237 442.212708,318.199066 415.910919,318.199432 
	C412.134583,318.199463 411.058380,316.446381 411.068207,312.993103 
	C411.180084,273.684875 411.228027,234.376404 411.273041,195.067993 
	C411.277435,191.238083 411.188965,187.406769 411.069977,183.578384 
	C410.961853,180.098907 412.486450,178.252670 416.057220,178.274109 
	C419.542389,178.295044 421.133331,179.907318 421.077972,183.521408 
	C420.919830,193.846115 420.944550,204.173599 420.897339,215.000000 
z"/>
<path fill="#989898" opacity="1.000000" stroke="none" 
	d="
M330.399353,262.187775 
	C319.842163,244.495361 309.321259,226.781143 298.711151,209.120514 
	C294.002655,201.283173 289.330750,193.406815 284.197388,185.850357 
	C282.219421,182.938736 281.851562,180.782623 284.543365,178.686829 
	C286.610992,177.077026 291.869232,178.600510 293.205597,180.863861 
	C301.070099,194.183823 308.908722,207.519180 316.812622,220.815750 
	C322.664215,230.659760 328.601746,240.452667 334.884338,250.906158 
	C336.026611,249.302444 336.937744,248.247055 337.603943,247.054810 
	C349.856201,225.127502 362.080322,203.184494 374.306671,181.242722 
	C375.739288,178.671677 380.970673,176.980270 383.208099,178.699173 
	C386.146362,180.956451 384.835449,183.309921 383.259613,186.030548 
	C369.086090,210.500198 354.868195,234.950211 341.241638,259.724060 
	C339.210114,263.417419 340.183502,268.763580 339.273865,273.706238 
	C335.987091,270.107483 333.193237,266.147614 330.399353,262.187775 
z"/>
<path fill="#EFEFEF" opacity="1.000000" stroke="none" 
	d="
M102.023529,466.969971 
	C100.373535,474.836548 99.838051,482.704895 96.853638,489.497284 
	C90.641373,503.636078 78.228249,509.127869 63.426796,509.688324 
	C55.284271,509.996674 47.120617,509.703491 38.970146,509.865540 
	C35.379108,509.936890 34.033451,508.737030 34.056313,504.931854 
	C34.208260,479.642242 34.189663,454.351105 34.073929,429.061127 
	C34.058281,425.641266 34.968971,424.277954 38.578808,424.376007 
	C48.374916,424.642059 58.288361,423.694092 67.958626,424.859436 
	C90.084900,427.525757 101.717484,441.241608 102.011055,463.489441 
	C102.024231,464.487701 102.023338,465.486176 102.023529,466.969971 
M52.504143,504.011383 
	C56.336590,504.005951 60.171494,504.087616 64.001053,503.979797 
	C79.101913,503.554657 90.330330,495.452271 93.946892,480.860504 
	C95.749809,473.586243 96.373718,465.650452 95.644394,458.198486 
	C94.320374,444.670105 87.306175,434.203339 73.289978,431.633636 
	C62.510567,429.657410 51.302643,430.018463 40.303528,429.341278 
	C40.303528,454.965271 40.303528,479.372772 40.303528,504.011383 
	C44.226501,504.011383 47.869545,504.011383 52.504143,504.011383 
z"/>
<path fill="#EFEFEF" opacity="1.000000" stroke="none" 
	d="
M425.208618,433.875153 
	C433.459076,449.643738 427.246857,464.189362 409.753143,469.544983 
	C411.039398,471.593994 412.231964,473.510864 413.441132,475.417175 
	C419.674286,485.244324 425.980011,495.026917 432.052460,504.952332 
	C432.733459,506.065460 432.101715,507.981750 432.078735,509.525574 
	C430.062897,508.998260 427.023865,509.130493 426.191956,507.839966 
	C419.087738,496.819153 412.311615,485.583221 405.614166,474.306641 
	C404.061523,471.692413 402.290741,470.687744 399.243500,470.832336 
	C393.761383,471.092468 388.258118,470.905792 382.031647,470.905792 
	C382.031647,477.199310 382.007050,483.444183 382.039185,489.688782 
	C382.066589,495.015869 382.367065,500.353729 382.083740,505.662079 
	C382.008484,507.072418 380.229126,508.391785 379.232239,509.752930 
	C378.202454,508.369781 376.284729,506.993134 376.274536,505.602509 
	C376.085815,479.794159 376.083771,453.983948 376.236725,428.175262 
	C376.244232,426.905762 378.020233,424.552734 378.977417,424.550354 
	C389.771729,424.523285 400.597290,424.454468 411.349457,425.262207 
	C416.875275,425.677277 421.710907,428.730225 425.208618,433.875153 
M390.526733,465.236450 
	C397.152679,464.830566 403.904968,465.087036 410.372925,463.853058 
	C418.681030,462.268005 423.142426,455.343933 422.925903,446.420929 
	C422.716370,437.785522 418.523682,432.132568 409.697876,430.976349 
	C400.714935,429.799530 391.554749,429.975342 382.308960,429.551361 
	C382.308960,441.901581 382.308960,453.466461 382.308960,465.236694 
	C384.904907,465.236694 387.221924,465.236694 390.526733,465.236450 
z"/>
<path fill="#EDEDED" opacity="1.000000" stroke="none" 
	d="
M324.002899,424.126404 
	C334.638763,424.126465 344.775177,424.126465 355.092804,424.126465 
	C356.270874,428.095734 355.765167,430.098755 351.280396,430.047974 
	C338.333588,429.901245 325.384064,429.996124 312.234192,429.996124 
	C312.234192,441.418671 312.234192,452.505096 312.234192,464.100159 
	C323.594666,464.100159 334.856171,464.068420 346.117188,464.126709 
	C348.396149,464.138519 351.727936,462.902130 351.820312,466.878815 
	C351.923126,471.304565 348.291443,469.897980 345.915344,469.916870 
	C334.786591,470.005524 323.656769,469.956299 312.279724,469.956299 
	C312.279724,481.315369 312.279724,492.392975 312.279724,503.918915 
	C325.735779,503.918915 339.164215,503.987030 352.590637,503.853241 
	C354.880707,503.830414 357.152008,503.117645 357.177582,506.487183 
	C357.201324,509.611481 355.114746,509.514801 352.695801,509.513153 
	C339.039825,509.503845 325.381226,509.555542 311.729187,509.849304 
	C307.422089,509.942017 306.015289,508.650513 306.055695,504.142975 
	C306.278107,479.323669 306.222290,454.500885 306.078430,429.680359 
	C306.056610,425.915558 306.809570,424.118958 311.031433,424.408203 
	C315.162933,424.691254 319.344116,424.249786 324.002899,424.126404 
z"/>
<path fill="#EDEDED" opacity="1.000000" stroke="none" 
	d="
M170.269501,509.532501 
	C156.018402,509.588226 142.190140,509.571747 128.367630,509.846222 
	C124.157661,509.929779 123.047646,508.467102 123.080788,504.303986 
	C123.278450,479.474030 123.266586,454.641052 123.084267,429.810852 
	C123.053970,425.684540 124.016113,424.344727 128.373199,424.414429 
	C141.193680,424.619446 154.022858,424.278961 166.848663,424.157623 
	C168.631332,424.140778 170.414307,424.155304 172.141602,424.155304 
	C173.455963,428.782196 171.967941,430.102448 167.886826,430.045563 
	C155.094162,429.867126 142.297440,429.979950 129.269073,429.979950 
	C129.269073,441.363708 129.269073,452.452515 129.269073,464.114929 
	C140.376846,464.114929 151.468048,464.116333 162.559250,464.112152 
	C163.392242,464.111847 164.381729,463.773468 165.025970,464.111542 
	C166.408966,464.837311 167.613861,465.902374 168.891663,466.828552 
	C167.589813,467.883759 166.308823,469.822510 164.982834,469.853790 
	C154.823059,470.093567 144.654526,469.961823 134.488724,469.946472 
	C132.846527,469.944000 131.204315,469.946106 129.302200,469.946106 
	C129.302200,481.281769 129.302200,492.363708 129.302200,503.815002 
	C142.857315,503.815002 156.447922,503.752502 170.036026,503.909424 
	C171.431686,503.925537 172.812195,505.253204 174.199753,505.972290 
	C173.031342,507.172211 171.862930,508.372162 170.269501,509.532501 
z"/>
<path fill="#EDEDED" opacity="1.000000" stroke="none" 
	d="
M574.003052,509.776825 
	C569.172363,509.775604 564.838074,509.677094 560.510498,509.805756 
	C557.369385,509.899109 556.062256,508.798981 556.074951,505.453766 
	C556.172485,479.799927 556.076050,454.145172 556.250427,428.492157 
	C556.259705,427.120789 558.146362,424.591370 559.192139,424.573853 
	C574.467651,424.317719 589.748779,424.397858 605.191406,424.397858 
	C606.272461,428.339417 605.416992,430.099121 601.095154,430.038879 
	C588.285034,429.860291 575.470825,429.974945 562.346313,429.974945 
	C562.346313,441.333069 562.346313,452.547577 562.346313,464.084503 
	C573.935913,464.084503 585.387695,464.087921 596.839478,464.081543 
	C599.132141,464.080292 601.897461,463.448669 601.872986,467.081207 
	C601.848206,470.767548 598.997559,469.963745 596.772461,469.966766 
	C585.445190,469.982208 574.117920,469.973877 562.412231,469.973877 
	C562.412231,481.207306 562.412231,492.397919 562.412231,503.864166 
	C575.889648,503.864166 589.334045,503.791687 602.775330,503.966614 
	C604.261230,503.985992 606.758362,505.178741 607.007019,506.243103 
	C607.686951,509.153015 605.529053,509.555725 602.974731,509.544739 
	C593.484436,509.503876 583.993225,509.681335 574.003052,509.776825 
z"/>
<path fill="#F0F0F0" opacity="1.000000" stroke="none" 
	d="
M265.201538,424.802277 
	C276.324402,427.619202 282.760712,435.167969 287.681946,444.434052 
	C283.508301,448.271820 282.196716,448.335541 280.276398,444.340027 
	C274.169800,431.634094 263.223907,428.240509 250.403198,429.055603 
	C238.089050,429.838501 229.471375,436.427521 225.077377,447.845184 
	C220.169281,460.598724 220.362106,473.650818 225.315552,486.346344 
	C229.894287,498.081451 239.295319,503.781219 251.510483,504.883087 
	C264.225372,506.030060 274.389374,501.431458 281.045563,490.288239 
	C283.105530,486.839630 284.987488,485.480225 288.194641,488.719879 
	C283.013733,502.924957 267.212677,512.307007 251.503906,510.580231 
	C230.508636,508.272461 217.344803,494.479858 216.227859,472.854218 
	C215.879501,466.109741 216.073303,459.071747 217.611572,452.543396 
	C222.944504,429.910492 241.188004,419.413055 265.201538,424.802277 
z"/>
<path fill="#F0F0F0" opacity="1.000000" stroke="none" 
	d="
M530.929626,473.094910 
	C541.035278,486.140656 535.654663,503.803528 520.331543,508.971313 
	C504.912384,514.171570 488.778046,508.273224 480.141998,494.279053 
	C483.616058,490.047821 484.161865,490.045929 487.307831,494.254059 
	C494.697357,504.138702 509.237976,507.981659 520.437378,502.888123 
	C526.573853,500.097260 529.758667,495.257843 530.237793,488.458527 
	C530.728210,481.499176 527.992493,476.341858 521.813171,473.418610 
	C517.185547,471.229401 512.168396,469.879303 507.402374,467.962372 
	C502.803711,466.112793 498.055634,464.437317 493.816833,461.934082 
	C486.388550,457.547485 484.069916,450.423950 485.115234,442.179932 
	C486.091919,434.477264 490.242310,428.838043 497.458466,425.925323 
	C509.844055,420.926117 521.219055,422.940308 531.426208,431.550293 
	C533.125061,432.983307 535.037842,434.377319 532.745361,436.802765 
	C530.689514,438.977844 529.062622,438.025604 527.314819,436.221130 
	C520.373596,429.054779 511.932526,427.489441 502.554352,429.959198 
	C495.763336,431.747620 491.580170,436.417145 490.914215,442.686218 
	C490.038910,450.926147 492.245514,455.398529 499.628815,458.771393 
	C504.286041,460.898926 509.402435,462.021118 514.059875,464.148254 
	C519.737549,466.741364 525.149841,469.915710 530.929626,473.094910 
z"/>
<path fill="#EFEFEF" opacity="1.000000" stroke="none" 
	d="
M455.907928,424.244537 
	C457.267700,425.620789 459.071503,427.002411 459.081635,428.397095 
	C459.269348,454.207062 459.282257,480.018768 459.147095,505.829132 
	C459.140259,507.134857 457.466187,508.431854 456.568420,509.732910 
	C455.415100,508.487885 453.265137,507.250519 453.255463,505.996643 
	C453.055084,480.018158 453.063660,454.037598 453.195557,428.058319 
	C453.201996,426.787018 454.708832,425.523285 455.907928,424.244537 
z"/>
<path fill="#FBFBFB" opacity="1.000000" stroke="none" 
	d="
M330.373322,262.643555 
	C333.193237,266.147614 335.987091,270.107483 339.094299,274.153137 
	C339.641113,287.344727 340.027710,300.452240 339.883301,313.553894 
	C339.867981,314.940033 336.894592,317.113617 335.012848,317.479950 
	C331.611053,318.142181 330.054413,315.956116 330.086304,312.425537 
	C330.234802,295.984039 330.270935,279.541504 330.373322,262.643555 
z"/>
<path fill="#010101" opacity="1.000000" stroke="none" 
	d="
M512.748901,233.911530 
	C516.009033,208.834381 529.852417,192.085678 552.106812,187.599030 
	C582.802063,181.410660 611.936646,195.049164 617.099060,233.398834 
	C619.357910,250.179031 618.469604,266.638336 611.080688,282.194244 
	C603.264893,298.648712 589.899902,307.365417 571.948120,309.119232 
	C553.815674,310.890656 537.401306,307.268982 524.996948,292.726654 
	C516.694580,282.993378 513.067383,271.195587 512.163086,258.739838 
	C511.576843,250.665329 512.465942,242.483704 512.748901,233.911530 
z"/>
<path fill="#010101" opacity="1.000000" stroke="none" 
	d="
M52.008362,504.011383 
	C47.869545,504.011383 44.226501,504.011383 40.303528,504.011383 
	C40.303528,479.372772 40.303528,454.965271 40.303528,429.341278 
	C51.302643,430.018463 62.510567,429.657410 73.289978,431.633636 
	C87.306175,434.203339 94.320374,444.670105 95.644394,458.198486 
	C96.373718,465.650452 95.749809,473.586243 93.946892,480.860504 
	C90.330330,495.452271 79.101913,503.554657 64.001053,503.979797 
	C60.171494,504.087616 56.336590,504.005951 52.008362,504.011383 
z"/>
<path fill="#020202" opacity="1.000000" stroke="none" 
	d="
M390.032837,465.236572 
	C387.221924,465.236694 384.904907,465.236694 382.308960,465.236694 
	C382.308960,453.466461 382.308960,441.901581 382.308960,429.551361 
	C391.554749,429.975342 400.714935,429.799530 409.697876,430.976349 
	C418.523682,432.132568 422.716370,437.785522 422.925903,446.420929 
	C423.142426,455.343933 418.681030,462.268005 410.372925,463.853058 
	C403.904968,465.087036 397.152679,464.830566 390.032837,465.236572 
z"/>
</svg>